<svg width="167" height="154"
     xmlns="http://www.w3.org/2000/svg" version="1.1">
<style>path {fill-opacity:1; stroke:none;}</style>
<path d="M 125,107L 45,107L 45,108L 125,108Z" style="fill:rgb(123,125,219);"/>
<path d="M 79,78L 77.7344,77.5313L 75.2344,76.5313L 74,76L 73,76L 73,79L 79,79Z" style="fill:rgb(123,125,219);"/>
<path d="M 81,128L 81,118L 80,118L 80,128Z" style="fill:rgb(123,125,219);"/>
<path d="M 120.9263,122.1111L 120.4631,121.0555L 121.1738,120.9346ZM 101.9263,122.1111L 101.4631,121.0555L 102.1738,120.9346ZM 65.6253,123.0431L 65.2479,124.0237L 64.5438,124.7697L 63.4944,124.6764L 62.9534,123.4467L 63.2537,122.1382L 64.2945,122.0931ZM 54.9908,120.4829L 54.9803,121.5789L 54.7036,122.6426L 54.1917,123.6011L 52.7778,125.2075L 51.7772,125.6353L 50.7363,125.8378L 49.7143,125.8178L 48.6988,125.4862L 47.8062,124.7852L 46.5383,122.9563L 46.5968,120.8749L 47.354,120.1068L 48.353,119.4856L 49.4916,119.0218L 51.8245,118.4972L 53.2688,118.9762ZM 109.3741,121.5401L 109.5758,120.3165L 109.9589,121.6611L 109.5996,122.9724ZM 85.6859,121.3709L 86.9009,120.4755L 88.0533,120.1605L 89.1838,120.4797L 90.0341,121.1374L 90.2224,122.5176L 89.8602,123.6208L 89.1513,124.3408L 86.5123,124.2568L 85.9861,123.3566ZM 77.3768,118.7696L 78.4967,119.7186L 79.9356,121.7285L 80.2226,123.993L 79.8337,126.312L 79.3133,127.2872L 78.5245,128.0244L 76.6457,128.8738L 75.6409,128.6474L 74.7233,128.1448L 73.0608,126.7205L 71.8161,124.711L 71.5897,123.5352L 71.6684,122.3872L 72.0378,121.363L 73.2708,119.6637L 75.2415,118.76ZM 0,0L 0,154L 167,154L 167,0ZM 64,107.9783L 60.0039,107.9799L 56.0469,107.9421L 52.2656,107.7279L 48.9531,107.0437L 46.4609,105.5378L 44.9531,103.0465L 44.2656,99.7343L 44.0469,95.9531L 44.0039,91.9961L 44,88L 44,46L 44.0039,42.0039L 44.0469,38.0469L 44.2656,34.2656L 44.9531,30.9531L 46.4609,28.4609L 48.9531,26.9531L 52.2656,26.2656L 56.0469,26.0469L 60.0039,26.0039L 64,26L 106,26L 109.9961,26.0039L 113.9531,26.0469L 117.7344,26.2656L 121.0469,26.9531L 123.5391,28.4609L 125.0469,30.9531L 125.7344,34.2656L 125.9531,38.0469L 125.9961,42.0039L 126,46L 126,88L 125.9961,91.996L 125.9531,95.9521L 125.7344,99.7291L 125.047,103.0302L 123.5394,105.5028L 121.0474,106.9877L 117.7351,107.6574L 113.9539,107.8682L 109.9969,107.9114L 106.0008,107.9196Z" style="fill:rgb(254,254,254);"/>
<path d="M 52,124L 52,121L 51,120L 48,120L 47,121L 47,124L 48,125L 51,125Z" style="fill:rgb(254,254,254);"/>
<path d="M 70.9987,66.6142L 71.4719,68.7953L 70.4988,70.8747L 69.4709,71.335L 68.4085,71.402L 66.4908,70.8867L 65.9555,69.8838L 65.8543,68.7705L 66.4566,66.6897L 67.393,65.9283L 69.3556,65.3886L 70.3817,65.6102ZM 62,59L 61,60L 60,61L 59,62L 58,65L 58,73L 59.334,75L 60,76L 61,77L 64,78L 72,78L 74,78L 79,78L 79,52L 74,52L 73.1875,54.6953L 71.6777,56.8574L 69.1563,58.1953L 65.791,58.7949Z" style="fill:rgb(254,254,254);"/>
<path d="M 78,124L 78,121L 77,120L 73,120L 73,124Z" style="fill:rgb(254,254,254);"/>
<path d="M 91.4355,69.1569L 91.2135,68.0854L 91.4641,66.1049L 93.1082,65.0307L 95.4098,65.5829L 96.0264,66.5573L 96.1762,67.5973L 95.7029,69.4665L 94.0544,70.6348L 92.2322,70.0654ZM 90.7869,79.6588L 88.2827,79.2927L 87,79L 86,79L 85.334,80L 84,82L 84,84L 86.668,84.666L 88,85L 100,85L 101,84L 102,83L 103,82L 104,80L 104,59L 100,59L 97,59L 88,59L 86,60L 85,61L 84.334,62L 83,64L 83,72L 83.7656,73L 85.2656,75L 86,76L 88,77L 89.5776,77.1863L 92.3325,77.8933L 91.9712,79.5542Z" style="fill:rgb(254,254,254);"/>
<path d="M 106,29L 109.0938,28.5508L 112.4102,28.248L 115.9121,28.1748L 119.3359,28.3555L 122.4941,28.7549L 124,29L 125,29L 125,27L 45,27L 45,29L 46,29L 47.5078,28.7539L 50.6875,28.3438L 54.2188,28.1094L 58.043,28.0215L 62.0039,28.002L 66,28L 81,28L 84.9961,28.002L 88.957,28.0215L 92.7813,28.1094L 96.3125,28.3438L 99.4922,28.7539L 101,29Z" style="fill:rgb(95,107,185);"/>
<path d="M 47,128L 51,128L 52,127L 52,125L 48,125L 46,126L 46,127Z" style="fill:rgb(95,107,185);"/>
<path d="M 79,130L 76,129L 73.332,128.334L 72,128L 71,128L 70,129L 70,130L 71,131L 79,131Z" style="fill:rgb(95,107,185);"/>
<path d="M 79,125L 78,124L 75,124L 73,125.334L 72,126L 72,127L 73.2656,127.2344L 75.7656,127.7344L 77,128L 78,128L 79,126Z" style="fill:rgb(95,107,185);"/>
<path d="M 81,53L 80,51L 79,51L 79,78L 80,78L 80,74L 80.002,70.0039L 80.0215,66.043L 80.1094,62.2188L 80.3438,58.6875L 80.7539,55.5078L 81,54Z" style="fill:rgb(95,107,185);"/>
<path d="M 102,119L 103,116L 103,115L 96,115L 95,116L 95,118L 97.5547,118.2813L 99.8955,118.7266L 101,119Z" style="fill:rgb(95,107,185);"/>
<path d="M 105,125L 100,125L 100,126L 103,127L 105,127Z" style="fill:rgb(95,107,185);"/>
<path d="M 114,118L 116,118L 117.332,117.666L 120,117L 122,116L 122,115L 115,115L 114,116Z" style="fill:rgb(95,107,185);"/>
<path d="M 80,106L 82.8594,106.3223L 85.6367,106.752L 87,107L 124,107L 124,71L 123.7539,69.5078L 123.3438,66.4375L 123.1074,63.2383L 123,60L 122,60L 121,60.334L 119,61L 118,62L 117.3291,63.2197L 115.9492,65.5332L 114.4609,67.5371L 112.8408,69.2236L 112,70L 110,72L 108,74L 107.4297,75L 106.248,77L 105.624,78L 104.2236,80.2041L 102.5908,82.4795L 100.7446,84.3794L 98.6177,85.7544L 96.2402,86.6504L 95,87L 92.8242,88.8242L 90.4922,90.4922L 88,92L 87.3245,93.2236L 85.9297,95.5908L 84.415,97.7446L 82.7417,99.6177L 80.9319,101.2402L 80,102L 78,104L 78,105Z" style="fill:rgb(89,77,241);"/>
<path d="M 63,125L 63,126L 64,127L 67,127L 67,124L 64,124Z" style="fill:rgb(89,93,209);"/>
<path d="M 75,124L 74,123.334L 72,122L 71,122L 71,126L 74,126L 75,125Z" style="fill:rgb(89,93,209);"/>
<path d="M 80,130L 80,120L 78,120L 77.8926,121.4375L 77.5488,124.2031L 76.9023,126.7109L 76,129L 76,130Z" style="fill:rgb(89,93,209);"/>
<path d="M 81,78L 81.6445,74.6445L 82.5039,71.5039L 83,70L 83,68L 82.5898,66.8203L 81.8633,64.2734L 81.3652,61.2695L 81.1094,57.7813L 81,54L 80,54L 80,78Z" style="fill:rgb(89,93,209);"/>
<path d="M 83,120L 83,125L 84,126L 85,126L 85.666,123.332L 86,122L 86,120Z" style="fill:rgb(89,93,209);"/>
<path d="M 87,80L 89,80L 91,78.666L 92,78L 92,77L 89.332,76.334L 88,76L 86,76L 86,79Z" style="fill:rgb(89,93,209);"/>
<path d="M 87,125L 86,126L 86,128L 91,128L 93,127L 93,125Z" style="fill:rgb(89,93,209);"/>
<path d="M 89,85L 88,86L 88,87L 100,87L 101,86L 102,85L 102,83L 101,83L 98.3281,83.9023L 95.3984,84.5469L 92.2344,84.8711Z" style="fill:rgb(89,93,209);"/>
<path d="M 99,75L 98,75L 95.6777,75.9258L 93.248,76.6777L 92,77L 90,78L 89,79L 89,80L 91,81L 97,81L 98,80L 99,78Z" style="fill:rgb(89,93,209);"/>
<path d="M 94,121L 93,120L 91,120L 89,122L 89,123L 94,123Z" style="fill:rgb(89,93,209);"/>
<path d="M 98,64L 97,63L 91,63L 91,65L 98,65Z" style="fill:rgb(89,93,209);"/>
<path d="M 98,123L 97,123L 96,124L 95,125L 95,127L 103,127L 103,126L 100.4844,124.5156Z" style="fill:rgb(89,93,209);"/>
<path d="M 100.4629,118.4629L 98.8389,120.8389L 98,122L 98,124L 99,125L 102,125L 102.666,123.666L 104,121L 104,116L 102,116Z" style="fill:rgb(89,93,209);"/>
<path d="M 106,76L 106,58L 105,58L 105,76Z" style="fill:rgb(89,93,209);"/>
<path d="M 109,127L 111,127L 111,116L 108,116L 108,117L 108.2461,118.5078L 108.6582,121.6836L 108.9121,125.1758Z" style="fill:rgb(89,93,209);"/>
<path d="M 124,28L 111,28L 111,29L 124,29Z" style="fill:rgb(89,93,209);"/>
<path d="M 124,127L 124,125L 122.2813,124.8594L 119.0078,124.4961L 116,124L 115,124L 114,125L 114,127Z" style="fill:rgb(89,93,209);"/>
<path d="M 118.8447,118.4521L 117.5112,120.7852L 116,123L 116,126L 118,126L 121,125L 121.666,123.666L 123,121L 123,116L 120,116Z" style="fill:rgb(89,93,209);"/>
<path d="M 125,107L 125,29L 124,29L 124,107Z" style="fill:rgb(89,93,209);"/>
<path d="M 126,27L 125,27L 125,108L 126,108Z" style="fill:rgb(182,180,254);"/>
<path d="M 45,108L 45,27L 44,27L 44,108Z" style="fill:rgb(180,194,248);"/>
<path d="M 78.7795,52.787L 80,53L 81,53L 82.3516,50.3516L 84.0156,48.0156L 86,46L 87.9375,43.9375L 90,42L 91.9375,39.9375L 94,38L 95.9375,35.9375L 98,34L 100,32L 102,30L 102,29L 101,28L 100,28L 98.4922,28.2461L 95.3125,28.6563L 91.7813,28.8906L 87.957,28.9785L 83.9961,28.998L 80,29L 78,29L 76.668,29.334L 74,30L 72.0625,32.0625L 70,34L 68.0625,36.0625L 66,38L 64.0625,40.0625L 62,42L 60.0625,44.0625L 58,46L 56.0625,48.0625L 54,50L 52.0938,52.0938L 50,54L 49.2656,55.0313L 47.7656,57.0313L 47,58L 46.8926,61.2383L 46.6563,64.4375L 46.2461,67.5078L 46,69L 46,93L 47,93L 47.1934,89.8047L 47.6797,86.7813L 48.6465,84.1797L 49.3232,83.0898L 50.0278,82.0308L 50.7678,81.0195L 51.549,80.0845L 52.435,79.2537L 54.4152,77.9081L 56.6715,77.3849L 58.9071,77.8537L 61,79L 62,79L 63,78L 63,77L 61.5156,75.4258L 60.8564,74.5195L 60.2871,73.5215L 59.8313,72.4373L 59.1829,70.1238L 59.1443,68.8584L 59.3655,66.3005L 60.1346,63.7797L 61.3411,61.4824L 62.9335,59.5952L 64.9858,58.2563L 67.5441,57.4773L 70.4727,57.1094L 72,57L 72.717,55.787L 74.5481,53.8358L 77.2209,52.9423Z" style="fill:rgb(80,112,222);"/>
<path d="M 68.7417,77.1682L 67.1374,77.1379L 64.2665,76.9766L 62,76.603L 60,75.9375L 59,75.4688L 57,74.5L 56,74L 54,74L 52.0313,76.0469L 50,78L 48.5469,80.0625L 47,82L 46.8926,85.2383L 46.6563,88.4375L 46.2461,91.5078L 46,93L 45.6777,95.8594L 45.248,98.6367L 45,100L 45,107L 59,107L 59,106L 57.7861,105.5596L 56.6626,104.9185L 54.8882,103.2976L 54.4341,101.2585L 55.5044,99.2651L 57.5547,97.5315L 60,96L 60.5479,94.8418L 61.7627,92.6836L 62.4888,91.7627L 63.2981,90.8418L 65.0537,88.9624L 67.0039,87.0234L 69.0391,85.1328L 71.1836,83.4766L 73.5469,82.2285L 76.1797,81.4531L 79,81L 80,80L 80,78L 78.8887,77.9834L 76.5703,77.8184L 74.1816,77.335L 73,77L 72,77Z" style="fill:rgb(83,101,227);"/>
<path d="M 71,74L 72,73L 73,72L 73,71L 72.5703,69.8594L 71.752,67.4961L 71,65L 67,65L 66,66L 65,67L 65,70L 65.334,71.332L 66,74Z" style="fill:rgb(83,101,227);"/>
<path d="M 93,59L 96,58L 97,57L 99.0039,55.0039L 101.0391,53.0391L 103.1797,51.1797L 105.5078,49.5078L 108,48L 108.5479,46.8418L 109.7627,44.6836L 110.4888,43.7627L 112.1074,41.9209L 113.0537,40.9604L 114.0269,39.9802L 115.0173,38.9979L 116.0302,38.0576L 117.1166,37.2553L 119.3418,36.1836L 121.3291,36.5645L 122.5283,38.7051L 123,42L 124,42L 124,29L 122.3516,28.9805L 119,28.8906L 115.6563,28.6563L 112.5078,28.2461L 111,28L 106,28L 104.668,28.334L 102,29L 100,30L 98.8594,30.8594L 96.4961,32.4961L 94,34L 92.0625,36.0625L 90,38L 88.0625,40.0625L 86,42L 84.0625,44.0625L 82,46L 81.334,48.668L 81,50L 81,66L 82,68L 83,68L 83.5122,66.8071L 84.6099,64.5415L 85.9116,62.5942L 87.519,61.0747L 89.4912,60.002L 91.7861,59.2871Z" style="fill:rgb(83,101,227);"/>
<path d="M 86,74L 85.2344,73L 83.7344,71L 83,70L 81,70L 81,74L 83,75.4844L 85,77L 86,77Z" style="fill:rgb(83,101,227);"/>
<path d="M 89,122L 85,122L 85,127L 86,127L 87,126L 87.665,124.9961L 89,123Z" style="fill:rgb(83,101,227);"/>
<path d="M 90,72L 96,72L 96,71L 93.959,69.6875L 92.3848,67.8613L 91.3789,65.3848L 91,64L 90,64L 89,65L 89,71Z" style="fill:rgb(83,101,227);"/>
<path d="M 93,58L 93,59L 95.668,59.666L 97,60L 99,60L 100.4688,59.4688L 103.4688,58.4688L 105,58L 105,57L 96,57Z" style="fill:rgb(83,101,227);"/>
<path d="M 99,70L 99,65L 96,65L 96,66L 96.2656,67.2344L 96.7656,69.7344L 97,71L 98,71Z" style="fill:rgb(83,101,227);"/>
<path d="M 112,127L 112,115L 111,115L 111,127Z" style="fill:rgb(149,156,228);"/>
<path d="M 52,121L 53,120L 53,118L 46,118L 45,119L 44,120L 44,125L 45,126L 48,126L 48.6877,124.8494L 50.2185,122.7561Z" style="fill:rgb(88,113,202);"/>
<path d="M 46,100L 46,29L 45,29L 45,100Z" style="fill:rgb(88,113,202);"/>
<path d="M 100,28L 46,28L 46,29L 100,29Z" style="fill:rgb(88,113,202);"/>
<path d="M 55,126L 55,114L 52,114L 52,118L 52,120L 52,124L 53,125L 54,126Z" style="fill:rgb(88,113,202);"/>
<path d="M 51,124L 51,125L 52,127L 55,127L 55,126L 54,125L 53,124Z" style="fill:rgb(88,113,202);"/>
<path d="M 65,123L 65,122L 58,122L 57,123L 57,126L 58,127L 64,127L 64.6563,124.3438Z" style="fill:rgb(88,113,202);"/>
<path d="M 64.666,121L 66,119L 66,118L 58,118L 58,120L 59.334,120.666L 62,122L 64,122Z" style="fill:rgb(88,113,202);"/>
<path d="M 63.8242,59.0879L 67.3164,59.3418L 70.4922,59.7539L 72,60L 73,60L 73,51L 72,51L 71.3203,52.3125L 69.6563,54.5859L 67.3438,56.0547L 64.5078,56.7813L 63,57L 62,58L 62,59Z" style="fill:rgb(88,113,202);"/>
<path d="M 67,119L 65,119L 64,120L 64,122L 64,123L 64,124L 67,124Z" style="fill:rgb(88,113,202);"/>
<path d="M 67,71L 66.5039,68.2417L 66.1406,65.4258L 66,64L 65,64L 64,65L 64,72L 65,73L 66,73L 67,72Z" style="fill:rgb(88,113,202);"/>
<path d="M 73,65L 72,64L 71,63L 66,63L 66,66L 68,66.25L 70,66.707L 71,67L 72,67L 73,66Z" style="fill:rgb(88,113,202);"/>
<path d="M 79,118L 71,118L 70,119L 69,121L 69,124L 70,125L 71,125L 73,123.3184L 75,122.0303L 77,121.2627L 78,121L 79,119Z" style="fill:rgb(88,113,202);"/>
<path d="M 71,69L 72,71L 73,71L 73,66L 72,66L 71,67Z" style="fill:rgb(88,113,202);"/>
<path d="M 93,119L 92,118L 85,118L 84,119L 84,120L 93,120Z" style="fill:rgb(88,113,202);"/>
<path d="M 56,127L 56,114L 55,114L 55,127Z" style="fill:rgb(207,214,253);"/>
<path d="M 68,127L 68,121L 67,121L 67,127Z" style="fill:rgb(207,214,253);"/>
<path d="M 86,120L 86,122L 91,122L 91,120Z" style="fill:rgb(207,214,253);"/>
<path d="M 126,26L 44,26L 44,27L 126,27Z" style="fill:rgb(237,244,254);"/>
<path d="M 63,126L 64,125L 64,124L 60,124L 60,125L 61,126Z" style="fill:rgb(237,244,254);"/>
<path d="M 77,129L 77,127L 73,127L 72,128L 72,129Z" style="fill:rgb(237,244,254);"/>
<path d="M 46,29L 46,69L 47,69L 47.1094,67.3828L 47.292,65.7881L 47.8604,62.7158L 48.9238,60.0332L 50.5928,57.9873L 52.792,56.5732L 54,56L 54.6445,54.6445L 56.1484,52.1484L 57.0742,51.0742L 58.0059,50.0059L 59.9375,47.9375L 62,46L 63.9375,43.9375L 66,42L 67.9375,39.9375L 70,38L 71.9375,35.9375L 74,34L 75.9375,31.9375L 78,30L 78,29Z" style="fill:rgb(78,120,217);"/>
<path d="M 93.7437,86.6406L 91.353,85.7583L 89.2949,84.4463L 87.7178,82.5422L 86.6719,79.9978L 86,77L 85.2344,76L 83.7344,74L 83,73L 82,73L 81,74L 80.0771,76.3203L 78.8379,78.2969L 77.0552,79.7061L 74.7051,80.5352L 72,81L 70,82L 68,84L 66,86L 64,88L 62,90L 61,91L 60,92L 59,93L 57.5625,94.5313L 56,96L 54,98L 52,100L 50,102L 50,105L 52.5313,105.4902L 55.082,106.0449L 57.6836,106.6719L 59,107L 87,107L 87,106L 85.9905,105.449L 85.1469,104.5276L 84.1724,102.4134L 84.6566,100.1483L 86.1572,98.0441L 88,96L 89.9375,93.9375L 92,92L 94,90L 95,88L 95,87Z" style="fill:rgb(86,91,234);"/>
<path d="M 97,72L 97,66L 96,65L 91,65L 91,70L 92,71L 94.668,71.666L 96,72Z" style="fill:rgb(86,91,234);"/>
<path d="M 103,85L 103.666,84L 105,82L 105.6709,80.7607L 106.3613,79.5591L 107.8013,77.2383L 108.5944,76.1552L 109.4302,75.099L 111.1787,73.0251L 113.0568,71.004L 115.011,69.0003L 116,68L 116.772,67.0952L 118.4575,65.5708L 119.5823,65.3948L 121.5684,65.9663L 122.6689,68.0923L 123,71L 124,71L 124,42L 123.7539,40.4922L 123.3438,37.3125L 123.1074,33.7852L 123,30L 122,30L 120,32L 118,34L 116,36L 114,38L 112,40L 110,42L 109,43L 108,44L 107,45L 105.5625,46.5313L 104,48L 102,50L 100,52L 98,54L 96,56L 96,57L 97.5254,57.1133L 100.4297,57.5176L 102.8633,58.4531L 103.709,59.3301L 105.0137,61.5313L 105.6289,64.5117L 105.7012,67.9268L 105.2998,71.3369L 104.4912,74.4941L 104,76L 103.624,77.248L 102.8389,79.6777L 102,82L 102,85Z" style="fill:rgb(86,91,234);"/>
<path d="M 79,51L 73,51L 72.9121,52.5508L 72.6582,55.6055L 72.2461,58.5547L 72,60L 72,61L 74,61L 74.1992,59.4922L 74.8359,56.6563L 76.0703,54.3438L 77.9336,52.6797L 79,52Z" style="fill:rgb(168,172,246);"/>
<path d="M 81,117L 78,117L 78,118L 78,119L 78,120L 80,120L 81,118Z" style="fill:rgb(168,172,246);"/>
<path d="M 92,125L 94,124L 94,123L 86,123L 86,125Z" style="fill:rgb(168,172,246);"/>
<path d="M 105,127L 95,127L 95,128L 105,128Z" style="fill:rgb(168,172,246);"/>
<path d="M 98,60L 98,61L 99,62L 101.1914,62.7002L 102.875,64.4053L 103.7188,67.3467L 103.957,70.9248L 103.9961,74.3789L 104,76L 105,76L 105,58L 99,58Z" style="fill:rgb(168,172,246);"/>
<path d="M 112,114L 106,114L 106,117L 108,117L 111,116L 112,115Z" style="fill:rgb(168,172,246);"/>
<path d="M 112,127L 110.6465,124.8047L 109.6768,122.0977L 109.1611,118.7852L 109,117L 108,117L 108,128L 112,128Z" style="fill:rgb(168,172,246);"/>
<path d="M 124,127L 114,127L 114,128L 124,128Z" style="fill:rgb(168,172,246);"/>
</svg>